<svg xmlns="http://www.w3.org/2000/svg" width="55px" height="55px" viewBox="0 0 225 198"><defs><style>.cls-1{fill:#fff;}</style></defs><g id="Layer_2" data-name="Layer 2"><path class="cls-1" d="M40.22,52.65A5.47,5.47,0,0,1,44.16,50a13.86,13.86,0,0,1,3.61,0,27.16,27.16,0,0,0,6.35.47A13,13,0,0,0,56.25,53a15.33,15.33,0,0,0,5.2,2.9,29.86,29.86,0,0,0,3.75.83,16.76,16.76,0,0,1,3.57.94,8.1,8.1,0,0,1,2.72,1.79,6.19,6.19,0,0,1,.88,7.62,4.89,4.89,0,0,1-4.09,2.22,13.53,13.53,0,0,1-4.52-.43A22.66,22.66,0,0,1,58.69,67a12.53,12.53,0,0,0-6.14-1.43,20.5,20.5,0,0,0-4,.63,54.66,54.66,0,0,1-5.07-4.49,13.09,13.09,0,0,1-3.13-4.47A6.08,6.08,0,0,1,40.22,52.65ZM65.09,66.4a3.68,3.68,0,0,0,3.69-3.58,3.61,3.61,0,0,0-3.58-3.68,3.65,3.65,0,0,0-3.69,3.56,3.71,3.71,0,0,0,3.58,3.7"/><path class="cls-1" d="M139.37,177.13l3.85-6.93a32.32,32.32,0,0,1-9.67.06c-5.75-1.06-7.15-2.62-8.29-3.38a18.32,18.32,0,0,1-1.68-1.22L115,171.84l2.52,8.12a20,20,0,0,0,5.48,2.51A45.51,45.51,0,0,0,137.2,184a26.52,26.52,0,0,0,6.67-1.23,15.67,15.67,0,0,0,1.93-.72Z"/><path class="cls-1" d="M164.61,162.69l-3.27-5.36s-1.77,2.45-2.68,3.53a30.53,30.53,0,0,1-3.11,3.24,24.81,24.81,0,0,1-5.75,4c-1,.52-2.62,1.12-2.62,1.12s-3.9,7-4,7.31c2,1.55,6,4.49,6,4.49a49.24,49.24,0,0,0,6.23-3.18,52.32,52.32,0,0,0,10.27-8.4,40.8,40.8,0,0,0,5.53-8S164.63,162.73,164.61,162.69Z"/><path class="cls-1" d="M175.6,131.41l-3.34,3.88-5.37-2.48c0,1.69.09,3.24.05,4.79a38.93,38.93,0,0,1-.48,4.77,60.5,60.5,0,0,1-3.58,11.91l3.32,5.34,6.87-1.79a44.1,44.1,0,0,0,1.74-5.1,42.82,42.82,0,0,0,1.43-8.43C176.61,139.84,176.4,134,175.6,131.41Z"/><path class="cls-1" d="M138.67,117.71l2.62-.1,1.28,3.14s0,.66,0,1c.22,2.51,1.61,4.28,3.51,5.89a28.91,28.91,0,0,0,3.35,2.21,6.34,6.34,0,0,1-1.9.07,10.46,10.46,0,0,1-6.32-2.64,9.17,9.17,0,0,1-2.85-6.18,9.66,9.66,0,0,1,0-2.28,5.5,5.5,0,0,1,.26-1.06"/><path class="cls-1" d="M173.72,124.39a35.94,35.94,0,0,0-2.9-5A22.08,22.08,0,0,0,164,113l-.2,3.4-3.94.71a19.85,19.85,0,0,1,1.73,1.72,17.44,17.44,0,0,1,2,3,28.78,28.78,0,0,1,2.62,7.53l5.42,2.49,3.17-4.45S174.35,125.88,173.72,124.39Z"/><path class="cls-1" d="M154.58,145.64a2.89,2.89,0,0,0-3.45-.2,11.8,11.8,0,0,0-1.07.94,4.38,4.38,0,0,1-3.57,1.12,4,4,0,0,1-3.38-5.24c.26-.82.57-1.62.82-2.44a4.5,4.5,0,0,0,.29-1.52,2.88,2.88,0,0,0-5-1.79,2.81,2.81,0,0,0-.53,3.18c.14.3.34.58.5.87a7.69,7.69,0,0,1,.95,2.67,3.12,3.12,0,0,1-.29,1.81,1.19,1.19,0,0,1-1.65.67,4.71,4.71,0,0,1-1.13-.6,17.91,17.91,0,0,1-1.43-1.18,56.82,56.82,0,0,0-8-5.92,4.27,4.27,0,0,0-3.13-.68,8.63,8.63,0,0,0-2.13.77,11.3,11.3,0,0,0-2.74,2,34.12,34.12,0,0,0-3.72,4.33,1.68,1.68,0,0,1-.73.65c-.28-3.59,1.87-9.79,3.47-13.3,2.39-6.25,2.22-12.56,1.94-18-1.16-14.12-6-28.93-16.34-38.74a31.74,31.74,0,0,0-7.49,1.06L93.41,77a25.43,25.43,0,0,0-4.76,1.72,33,33,0,0,1,1.13,4l.41,2.74L107,99a5.26,5.26,0,0,1,2.34-.54,5.41,5.41,0,1,1-5.41,5.41,5.07,5.07,0,0,1,.15-1.24L90.8,91.93a72.42,72.42,0,0,1-.38,8.55l-.51,4.22c-.06.39-.13.79-.19,1.18l9.86,7.92a5.41,5.41,0,1,1-3.07,4.87,5.05,5.05,0,0,1,.15-1.23l-7.84-6.3c-.07.37-.13.75-.21,1.11l-.79,3.88c-.35,1.66-.71,3.28-1,4.85-.09.48-.14,1-.22,1.47L86.38,124l5.75,4.62a5.26,5.26,0,0,1,2.34-.54,5.41,5.41,0,1,1-5.41,5.41,5.61,5.61,0,0,1,.14-1.24L86,129.66a57.15,57.15,0,0,0,1.58,14.63c-.51-.28-.79-.44-1.08-.58-1.53-.77-3-1.57-4.6-2.27a13.16,13.16,0,0,0-4.41-1.13,5.51,5.51,0,0,0-3,.56,4.65,4.65,0,0,0-1.63,1.58,55.72,55.72,0,0,0-5,9,14.67,14.67,0,0,1-.78,1.53,4.49,4.49,0,0,1-.82,1,1.16,1.16,0,0,1-1.57,0,3.09,3.09,0,0,1-1.15-1.76,7.38,7.38,0,0,1-.19-2.69c0-.29.11-.57.12-.85a2.92,2.92,0,0,0-1.94-2.87,2.88,2.88,0,0,0-3.22,4.5c.33.41.73.75,1.08,1.14a20.18,20.18,0,0,1,1.48,1.73,3.8,3.8,0,0,1-.26,4.76,4.35,4.35,0,0,1-4.79,1.36c-.37-.1-.71-.27-1.08-.37a2.87,2.87,0,0,0-3.11,1.22,3,3,0,0,0,0,3.23,2.91,2.91,0,0,0,4.67.1c.45-.55.83-1.16,1.31-1.69a3.79,3.79,0,0,1,3.62-1.23A4.17,4.17,0,0,1,64,167.08c-.41.52-.87,1-1.29,1.53a6.88,6.88,0,0,0-.79,1,2.8,2.8,0,0,0,.55,3.52,2.89,2.89,0,0,0,4.62-3.26c-.2-.53-.47-1-.63-1.59a4.24,4.24,0,0,1,5-5.3,7.85,7.85,0,0,1,2.57,1.2,9.3,9.3,0,0,0,.81.59,2.85,2.85,0,0,0,4.07-1.33,2.88,2.88,0,0,0-1.64-3.87,2.81,2.81,0,0,0-2.34.14,4.22,4.22,0,0,1-2.06.51c-1,0-1.36-.42-1.42-1.4a4.19,4.19,0,0,1,.36-2,11.87,11.87,0,0,1,2.77-3.95,6.74,6.74,0,0,1,6.61-1.66,14.05,14.05,0,0,1,4.58,2.28,107.22,107.22,0,0,0,9.12,5.87,4.42,4.42,0,0,1,1.34,1.24c1.29,1.71,2.57,3.44,3.94,5.08a62.59,62.59,0,0,0,12,11.17c.47.33,1.56,1,1.56,1l-2-7.33,9.59-7a22.86,22.86,0,0,1-3.68-5.68c1.26-2,2.49-4.07,3.78-6.07a9.85,9.85,0,0,1,2.58-2.65,6.5,6.5,0,0,1,4.85-1.25,11.06,11.06,0,0,1,5.76,3,3.13,3.13,0,0,1,.53.67c1.11,1.66.7,2.65-1.26,3-.51.1-1.05,0-1.57.1a2.87,2.87,0,0,0-1.78,4.84,2.87,2.87,0,0,0,4.67-.73,7.63,7.63,0,0,1,1.81-2.37,4,4,0,0,1,4.52-.76,4,4,0,0,1,2.57,3.64c0,.38,0,.76,0,1.14a5.36,5.36,0,0,0,.19,1.12A2.88,2.88,0,1,0,148.2,158c-.68-.33-1.39-.62-2.07-.95a4.24,4.24,0,0,1-1.9-1.68,4.36,4.36,0,0,1,.5-4.82,4.06,4.06,0,0,1,4.64-1.22,15.4,15.4,0,0,1,1.41.7c.29.15.57.34.87.47a2.86,2.86,0,0,0,3.71-1.48A3,3,0,0,0,154.58,145.64Z"/><path class="cls-1" d="M156.52,109.37a23.15,23.15,0,0,0-8.69-.62,10.47,10.47,0,0,0-4.29,1.62,9.88,9.88,0,0,0-3.55,4l2.45.16,1.47,2.38a7.74,7.74,0,0,1,2-2.35,6.4,6.4,0,0,1,3.08-1.11,12.45,12.45,0,0,1,4.68.35,26.86,26.86,0,0,1,2.65.83l4.7-.69v-2.76A17.39,17.39,0,0,0,156.52,109.37Z"/><path class="cls-1" d="M109.14,36.34a2.88,2.88,0,0,1,.08,5c-.36.24-.76.39-1.12.63a4.29,4.29,0,0,0-1.55,5.85A3.37,3.37,0,0,0,109,49.6a19,19,0,0,0,2,.21c.72,0,1.43,0,2.15,0a2.77,2.77,0,0,1,2.59,2.09,2.83,2.83,0,0,1-1.29,3.21,2.8,2.8,0,0,1-3.44-.31,7.87,7.87,0,0,1-.66-.75,8.2,8.2,0,0,0-2.09-1.71,3.08,3.08,0,0,0-1.92-.43,1.24,1.24,0,0,0-1.21,1.33,5.46,5.46,0,0,0,.53,2.35c.49,1.19,1,2.37,1.43,3.58A59.92,59.92,0,0,1,109,65.87a4.59,4.59,0,0,1-1.14,4.22,12.74,12.74,0,0,1-1.26,1.17,3.92,3.92,0,0,1-2.59,1,45.32,45.32,0,0,0-15,3.07,18.55,18.55,0,0,0-3.87,1.91c.13.45.23.86.38,1.26a41.43,41.43,0,0,1,2.16,8.27,36.78,36.78,0,0,1,.14,10.53,2.35,2.35,0,0,1-.57,1.27,4.57,4.57,0,0,1-3.52,1.62,58.07,58.07,0,0,1-10.93-1,9,9,0,0,0-1.56-.14,2.93,2.93,0,0,0-1,.23,1.19,1.19,0,0,0-.75,1.39,3.3,3.3,0,0,0,.85,1.77,8.34,8.34,0,0,0,2.52,1.85,2.91,2.91,0,0,1,1.57,1.76A2.88,2.88,0,0,1,69,107.94c-.18-.53-.24-1.11-.37-1.66-.18-.7-.35-1.39-.57-2.07a4,4,0,0,0-6.25-1.74A4.79,4.79,0,0,0,60.05,105a8.23,8.23,0,0,1-.38,1.22,2.86,2.86,0,0,1-5.41-.81A2.76,2.76,0,0,1,56,102.33a5.11,5.11,0,0,1,1.25-.21c.61-.08,1.23-.11,1.84-.19a3.74,3.74,0,0,0,3.14-2.58,4.21,4.21,0,0,0-4.59-5.68,20.34,20.34,0,0,1-2.69.23,2.72,2.72,0,0,1-2.62-2.69,2.93,2.93,0,0,1,2-2.86,2.81,2.81,0,0,1,3.2,1c.32.41.55.89.86,1.31a4.13,4.13,0,0,0,3.53,1.83A4.07,4.07,0,0,0,65.71,90a6.44,6.44,0,0,0,.57-2.78c0-.38,0-.76,0-1.14a2.77,2.77,0,0,1,2.12-2.71,2.9,2.9,0,0,1,2.54,5.06c-.29.23-.63.41-1,.62a3.36,3.36,0,0,0-1.22,1.37A1.08,1.08,0,0,0,69,91.79a3.52,3.52,0,0,0,1.88,1,16.11,16.11,0,0,0,2.41.21,11.49,11.49,0,0,0,4-.72C80.68,91,82.06,88.36,81.94,85a14.23,14.23,0,0,0-.23-1.84,4.8,4.8,0,0,0-3.84-3.93,6.64,6.64,0,0,0-3.77.39,16,16,0,0,1-5,1,14.63,14.63,0,0,1-11.25-4.35c-.92-.9-1.77-1.87-2.62-2.83-1.34-1.54-2.65-3.1-4.05-4.74a2.45,2.45,0,0,1,1.11-.3,9.48,9.48,0,0,1,4.81,1,29.07,29.07,0,0,0,6.15,2.26,16.54,16.54,0,0,0,5.24.47c4.67-.36,7.2-3.4,7.62-7.46.47-4.65-2.33-8-6.11-9.65a16.24,16.24,0,0,0-4.55-1.18,15.44,15.44,0,0,1-4.53-1.22,11.2,11.2,0,0,1-1.43-.77,10.7,10.7,0,0,1-1.26-1,7.72,7.72,0,0,1-.67-.85s1.89-.28,3.81-.47a35.94,35.94,0,0,1,4.18-.19,20.6,20.6,0,0,1,12.16,4,15.09,15.09,0,0,1,5.8,7.92,2.7,2.7,0,0,0,.33.78A12.09,12.09,0,0,0,90,67a6.42,6.42,0,0,0,4.74-.13,14.29,14.29,0,0,0,1.67-.81A7,7,0,0,0,100,58.69a19.69,19.69,0,0,0-.82-3.17,3.89,3.89,0,0,0-1.38-2,1.23,1.23,0,0,0-1.89.16,7.58,7.58,0,0,0-.9,1.44c-.15.29-.21.63-.35.93a2.9,2.9,0,0,1-3.26,1.49,2.84,2.84,0,0,1-2.2-2.5A2.81,2.81,0,0,1,91,52.13a6,6,0,0,1,1.11-.27,7.79,7.79,0,0,0,2.77-1.09,4.25,4.25,0,0,0-.14-7.09A14,14,0,0,0,93.27,43a11,11,0,0,1-1-.44A2.88,2.88,0,0,1,94,37.27a2.78,2.78,0,0,1,2.59,2.27c.15.84.21,1.7.3,2.55a4,4,0,0,0,3.56,3.72,4.28,4.28,0,0,0,4.51-2.56,5.41,5.41,0,0,0,.17-2.82c0-.37-.19-.74-.23-1.12a2.8,2.8,0,0,1,1.71-3.13,2.5,2.5,0,0,1,1.16-.23A2.53,2.53,0,0,1,109.14,36.34Z"/></g></svg>